<svg xmlns="http://www.w3.org/2000/svg" viewBox="0 0 1200 320" role="img" aria-label="FrameGuard — Performance regressions, testable.">
  <title>FrameGuard banner</title>
  <defs>
    <linearGradient id="bg" x1="0" y1="0" x2="1" y2="1">
      <stop offset="0%" stop-color="#F4F6F5"/>
      <stop offset="100%" stop-color="#E4EBE8"/>
    </linearGradient>
    <clipPath id="markInner">
      <rect x="26" y="30" width="76" height="68" rx="4"/>
    </clipPath>
  </defs>
  <rect width="1200" height="320" fill="url(#bg)"/>
  <!-- subtle frame grid -->
  <g stroke="#1A3A3A" stroke-opacity="0.06" fill="none">
    <rect x="40" y="40" width="1120" height="240" rx="16"/>
    <line x1="40" y1="120" x2="1160" y2="120"/>
    <line x1="40" y1="200" x2="1160" y2="200"/>
  </g>
  <!-- mark (scaled ~1.125× from 128 mark) -->
  <g transform="translate(64,80) scale(1.125)">
    <rect x="12" y="12" width="104" height="104" rx="14" fill="none" stroke="#1A3A3A" stroke-width="5.5"/>
    <rect x="22" y="26" width="84" height="76" rx="6" fill="none" stroke="#1A3A3A" stroke-width="2.25" opacity="0.92"/>
    <g fill="none" stroke="#1A3A3A" stroke-width="2.5" stroke-linecap="square">
      <path d="M18 34 V22 H30"/>
      <path d="M110 34 V22 H98"/>
      <path d="M18 94 V106 H30"/>
      <path d="M110 94 V106 H98"/>
    </g>
    <g stroke="#1A3A3A" stroke-linecap="round">
      <line x1="30" y1="20" x2="98" y2="20" stroke-width="1.75" opacity="0.55"/>
      <line x1="34" y1="17" x2="34" y2="23" stroke-width="1.4"/>
      <line x1="42" y1="18" x2="42" y2="22" stroke-width="1.2" opacity="0.7"/>
      <line x1="50" y1="17" x2="50" y2="23" stroke-width="1.4"/>
      <line x1="58" y1="18" x2="58" y2="22" stroke-width="1.2" opacity="0.7"/>
      <line x1="66" y1="14.5" x2="66" y2="25.5" stroke="#C45C26" stroke-width="2.75"/>
      <line x1="74" y1="18" x2="74" y2="22" stroke-width="1.2" opacity="0.7"/>
      <line x1="82" y1="17" x2="82" y2="23" stroke-width="1.4"/>
      <line x1="90" y1="18" x2="90" y2="22" stroke-width="1.2" opacity="0.7"/>
      <line x1="98" y1="17" x2="98" y2="23" stroke-width="1.4"/>
    </g>
    <g clip-path="url(#markInner)">
      <rect x="26" y="30" width="76" height="68" rx="4" fill="#F4F6F5"/>
      <line x1="28" y1="58" x2="100" y2="58" stroke="#2F6F4E" stroke-width="2" stroke-dasharray="3.5 2.5" opacity="0.95"/>
      <circle cx="30.5" cy="58" r="2.2" fill="#2F6F4E"/>
      <rect x="32" y="64" width="6" height="26" rx="1.5" fill="#2F4F4F"/>
      <rect x="41" y="70" width="6" height="20" rx="1.5" fill="#5C6B6B"/>
      <rect x="50" y="61" width="6" height="29" rx="1.5" fill="#2F4F4F"/>
      <rect x="59" y="67" width="6" height="23" rx="1.5" fill="#5C6B6B"/>
      <rect x="68" y="36" width="7" height="54" rx="1.75" fill="#C45C26"/>
      <rect x="78" y="66" width="6" height="24" rx="1.5" fill="#2F4F4F"/>
      <rect x="87" y="72" width="6" height="18" rx="1.5" fill="#5C6B6B"/>
      <rect x="28" y="59" width="70" height="1.5" fill="#2F6F4E" opacity="0.22"/>
    </g>
    <g transform="translate(86, 88)">
      <path d="M0 2.5 C0 2.5 8 -2 16 2.5 L16 12.5 C16 18 8 22 8 22 C8 22 0 18 0 12.5 Z"
            fill="#2F6F4E" stroke="#1A3A3A" stroke-width="1.4" stroke-linejoin="round"/>
      <path d="M4.2 11.2 L7.1 14.2 L12.2 7.8" fill="none" stroke="#F4F6F5" stroke-width="2" stroke-linecap="round" stroke-linejoin="round"/>
    </g>
  </g>
  <!-- wordmark -->
  <text x="260" y="155" font-family="Sora, Outfit, DM Sans, Segoe UI, sans-serif" font-size="64" font-weight="700" fill="#1A3A3A">FrameGuard</text>
  <text x="260" y="210" font-family="Sora, Outfit, DM Sans, Segoe UI, sans-serif" font-size="28" font-weight="500" fill="#5C6B6B">Performance regressions, testable.</text>
  <!-- signal accent rule -->
  <rect x="260" y="230" width="72" height="4" rx="2" fill="#C45C26"/>
</svg>
